<svg width="184" height="44" viewBox="0 0 184 44" fill="none" xmlns="http://www.w3.org/2000/svg">
<path d="M2.0674e-06 40.25C2.28966 40.25 4.5569 39.8038 6.67227 38.9369C8.78764 38.07 10.7097 36.7994 12.3288 35.1976C13.9478 33.5958 15.2321 31.6942 16.1083 29.6013C16.9845 27.5084 17.4355 25.2653 17.4355 23C17.4355 20.7347 16.9845 18.4916 16.1083 16.3987C15.2321 14.3058 13.9478 12.4042 12.3288 10.8024C10.7097 9.2006 8.78764 7.92997 6.67227 7.06308C4.5569 6.19618 2.28966 5.75 2.14577e-06 5.75L2.82953e-06 23L2.0674e-06 40.25Z" fill="#33CC99"/>
<path d="M47 18.5C47 14.9196 45.5624 11.4858 43.0034 8.95406C40.4444 6.42232 36.9737 5 33.3548 5C29.7359 5 26.2652 6.42232 23.7062 8.95406C21.1473 11.4858 19.7097 14.9196 19.7097 18.5L33.3548 18.5H47Z" fill="#FF2A54"/>
<ellipse cx="33.3548" cy="31.625" rx="9.47581" ry="9.375" fill="#FF2A54"/>
<path d="M54.0601 18.8999V4.2999H58.8001C59.8134 4.2999 60.6934 4.49324 61.4401 4.8799C62.2001 5.26657 62.7867 5.81324 63.2001 6.5199C63.6267 7.21324 63.8401 8.03324 63.8401 8.9799V14.1999C63.8401 15.1332 63.6267 15.9532 63.2001 16.6599C62.7867 17.3666 62.2001 17.9199 61.4401 18.3199C60.6934 18.7066 59.8134 18.8999 58.8001 18.8999H54.0601ZM57.0601 16.0999H58.8001C59.4134 16.0999 59.9067 15.9266 60.2801 15.5799C60.6534 15.2332 60.8401 14.7732 60.8401 14.1999V8.9799C60.8401 8.4199 60.6534 7.96657 60.2801 7.6199C59.9067 7.27324 59.4134 7.0999 58.8001 7.0999H57.0601V16.0999Z" fill="#101A15"/>
<path d="M70.8122 19.0999C69.8389 19.0999 68.9856 18.9199 68.2522 18.5599C67.5322 18.1866 66.9722 17.6732 66.5722 17.0199C66.1856 16.3532 65.9922 15.5799 65.9922 14.6999V12.0999C65.9922 11.2199 66.1856 10.4532 66.5722 9.7999C66.9722 9.13324 67.5322 8.6199 68.2522 8.2599C68.9856 7.88657 69.8389 7.6999 70.8122 7.6999C71.7856 7.6999 72.6256 7.88657 73.3322 8.2599C74.0522 8.6199 74.6056 9.13324 74.9922 9.7999C75.3922 10.4532 75.5922 11.2199 75.5922 12.0999V14.0999H68.8522V14.6999C68.8522 15.3932 69.0189 15.9199 69.3522 16.2799C69.6856 16.6266 70.1856 16.7999 70.8522 16.7999C71.3189 16.7999 71.6922 16.7199 71.9722 16.5599C72.2656 16.3999 72.4589 16.1799 72.5522 15.8999H75.4922C75.2522 16.8599 74.7056 17.6332 73.8522 18.2199C73.0122 18.8066 71.9989 19.0999 70.8122 19.0999ZM72.7322 12.5599V12.0599C72.7322 11.3799 72.5722 10.8599 72.2522 10.4999C71.9456 10.1399 71.4656 9.9599 70.8122 9.9599C70.1589 9.9599 69.6656 10.1466 69.3322 10.5199C69.0122 10.8932 68.8522 11.4199 68.8522 12.0999V12.3999L72.9322 12.3599L72.7322 12.5599Z" fill="#101A15"/>
<path d="M82.3244 19.0999C81.4178 19.0999 80.6244 18.9599 79.9444 18.6799C79.2644 18.3866 78.7311 17.9866 78.3444 17.4799C77.9711 16.9732 77.7844 16.3799 77.7844 15.6999H80.7844C80.7844 16.0199 80.9244 16.2799 81.2044 16.4799C81.4978 16.6666 81.8711 16.7599 82.3244 16.7599H83.2044C83.7511 16.7599 84.1644 16.6599 84.4444 16.4599C84.7378 16.2599 84.8844 15.9799 84.8844 15.6199C84.8844 15.2866 84.7578 15.0332 84.5044 14.8599C84.2511 14.6732 83.8578 14.5466 83.3244 14.4799L82.0444 14.3199C80.6711 14.1466 79.6711 13.8132 79.0444 13.3199C78.4178 12.8266 78.1044 12.0732 78.1044 11.0599C78.1044 9.99324 78.4711 9.16657 79.2044 8.5799C79.9378 7.99324 81.0111 7.6999 82.4244 7.6999H83.1844C84.5311 7.6999 85.6044 7.99324 86.4044 8.5799C87.2044 9.16657 87.6044 9.95324 87.6044 10.9399H84.6044C84.6044 10.6732 84.4711 10.4599 84.2044 10.2999C83.9511 10.1266 83.6111 10.0399 83.1844 10.0399H82.4244C81.9311 10.0399 81.5711 10.1266 81.3444 10.2999C81.1178 10.4599 81.0044 10.7066 81.0044 11.0399C81.0044 11.3466 81.1044 11.5799 81.3044 11.7399C81.5178 11.8999 81.8511 12.0132 82.3044 12.0799L83.6844 12.2599C85.0711 12.4332 86.0978 12.7799 86.7644 13.2999C87.4444 13.8199 87.7844 14.5932 87.7844 15.6199C87.7844 16.7399 87.3978 17.5999 86.6244 18.1999C85.8511 18.7999 84.7111 19.0999 83.2044 19.0999H82.3244Z" fill="#101A15"/>
<path d="M90.1766 18.8999V16.1799H93.9766V10.5999H90.6766V7.8999H96.7766V16.1799H99.9766V18.8999H90.1766ZM95.1766 6.1599C94.63 6.1599 94.19 6.0199 93.8566 5.7399C93.5366 5.4599 93.3766 5.0799 93.3766 4.5999C93.3766 4.1199 93.5366 3.7399 93.8566 3.4599C94.19 3.1799 94.63 3.0399 95.1766 3.0399C95.7233 3.0399 96.1566 3.1799 96.4766 3.4599C96.81 3.7399 96.9766 4.1199 96.9766 4.5999C96.9766 5.0799 96.81 5.4599 96.4766 5.7399C96.1566 6.0199 95.7233 6.1599 95.1766 6.1599Z" fill="#101A15"/>
<path d="M103.669 22.4999V20.0999H106.769C107.329 20.0999 107.755 19.9599 108.049 19.6799C108.355 19.3999 108.509 19.0132 108.509 18.5199V18.0999L108.549 15.9999H107.849L108.549 15.2999C108.549 16.2466 108.289 16.9866 107.769 17.5199C107.249 18.0399 106.535 18.2999 105.629 18.2999C104.522 18.2999 103.635 17.9132 102.969 17.1399C102.302 16.3666 101.969 15.3199 101.969 13.9999V11.9999C101.969 10.6932 102.302 9.65324 102.969 8.8799C103.635 8.09324 104.522 7.6999 105.629 7.6999C106.535 7.6999 107.249 7.96657 107.769 8.4999C108.289 9.0199 108.549 9.75324 108.549 10.6999L107.849 9.9999H108.549L108.449 7.8999H111.449V18.6199C111.449 19.8199 111.035 20.7666 110.209 21.4599C109.395 22.1532 108.282 22.4999 106.869 22.4999H103.669ZM106.709 15.6999C107.255 15.6999 107.682 15.5466 107.989 15.2399C108.295 14.9199 108.449 14.4732 108.449 13.8999V12.0999C108.449 11.5266 108.295 11.0866 107.989 10.7799C107.682 10.4599 107.255 10.2999 106.709 10.2999C106.149 10.2999 105.715 10.4599 105.409 10.7799C105.115 11.0866 104.969 11.5266 104.969 12.0999V13.8999C104.969 14.4732 105.115 14.9199 105.409 15.2399C105.715 15.5466 106.149 15.6999 106.709 15.6999Z" fill="#101A15"/>
<path d="M114.081 18.8999V7.8999H116.981V9.9999H117.861L116.981 10.6999C116.981 9.76657 117.248 9.03324 117.781 8.4999C118.314 7.96657 119.034 7.6999 119.941 7.6999C121.008 7.6999 121.861 8.07324 122.501 8.8199C123.154 9.56657 123.481 10.5599 123.481 11.7999V18.8999H120.481V12.0999C120.481 11.5266 120.328 11.0866 120.021 10.7799C119.728 10.4599 119.308 10.2999 118.761 10.2999C118.228 10.2999 117.814 10.4599 117.521 10.7799C117.228 11.0866 117.081 11.5266 117.081 12.0999V18.8999H114.081Z" fill="#101A15"/>
<path d="M129.253 18.8999V7.0999H125.553V4.2999H135.953V7.0999H132.253V18.8999H129.253Z" fill="#101A15"/>
<path d="M142.745 19.0999C141.772 19.0999 140.925 18.9199 140.205 18.5599C139.485 18.1866 138.925 17.6732 138.525 17.0199C138.139 16.3532 137.945 15.5799 137.945 14.6999V12.0999C137.945 11.2199 138.139 10.4532 138.525 9.7999C138.925 9.13324 139.485 8.6199 140.205 8.2599C140.925 7.88657 141.772 7.6999 142.745 7.6999C143.732 7.6999 144.579 7.88657 145.285 8.2599C146.005 8.6199 146.559 9.13324 146.945 9.7999C147.345 10.4532 147.545 11.2199 147.545 12.0999V14.6999C147.545 15.5799 147.345 16.3532 146.945 17.0199C146.559 17.6732 146.005 18.1866 145.285 18.5599C144.579 18.9199 143.732 19.0999 142.745 19.0999ZM142.745 16.4999C143.332 16.4999 143.779 16.3466 144.085 16.0399C144.392 15.7199 144.545 15.2732 144.545 14.6999V12.0999C144.545 11.5132 144.392 11.0666 144.085 10.7599C143.779 10.4532 143.332 10.2999 142.745 10.2999C142.172 10.2999 141.725 10.4532 141.405 10.7599C141.099 11.0666 140.945 11.5132 140.945 12.0999V14.6999C140.945 15.2732 141.099 15.7199 141.405 16.0399C141.725 16.3466 142.172 16.4999 142.745 16.4999Z" fill="#101A15"/>
<path d="M150.118 18.8999V4.2999H153.118V12.0599H154.598L156.898 7.8999H160.238L157.178 13.2799L160.298 18.8999H156.898L154.578 14.5799H153.118V18.8999H150.118Z" fill="#101A15"/>
<path d="M166.75 19.0999C165.776 19.0999 164.923 18.9199 164.19 18.5599C163.47 18.1866 162.91 17.6732 162.51 17.0199C162.123 16.3532 161.93 15.5799 161.93 14.6999V12.0999C161.93 11.2199 162.123 10.4532 162.51 9.7999C162.91 9.13324 163.47 8.6199 164.19 8.2599C164.923 7.88657 165.776 7.6999 166.75 7.6999C167.723 7.6999 168.563 7.88657 169.27 8.2599C169.99 8.6199 170.543 9.13324 170.93 9.7999C171.33 10.4532 171.53 11.2199 171.53 12.0999V14.0999H164.79V14.6999C164.79 15.3932 164.956 15.9199 165.29 16.2799C165.623 16.6266 166.123 16.7999 166.79 16.7999C167.256 16.7999 167.63 16.7199 167.91 16.5599C168.203 16.3999 168.396 16.1799 168.49 15.8999H171.43C171.19 16.8599 170.643 17.6332 169.79 18.2199C168.95 18.8066 167.936 19.0999 166.75 19.0999ZM168.67 12.5599V12.0599C168.67 11.3799 168.51 10.8599 168.19 10.4999C167.883 10.1399 167.403 9.9599 166.75 9.9599C166.096 9.9599 165.603 10.1466 165.27 10.5199C164.95 10.8932 164.79 11.4199 164.79 12.0999V12.3999L168.87 12.3599L168.67 12.5599Z" fill="#101A15"/>
<path d="M174.042 18.8999V7.8999H176.942V9.9999H177.822L176.942 10.6999C176.942 9.76657 177.209 9.03324 177.742 8.4999C178.275 7.96657 178.995 7.6999 179.902 7.6999C180.969 7.6999 181.822 8.07324 182.462 8.8199C183.115 9.56657 183.442 10.5599 183.442 11.7999V18.8999H180.442V12.0999C180.442 11.5266 180.289 11.0866 179.982 10.7799C179.689 10.4599 179.269 10.2999 178.722 10.2999C178.189 10.2999 177.775 10.4599 177.482 10.7799C177.189 11.0866 177.042 11.5266 177.042 12.0999V18.8999H174.042Z" fill="#101A15"/>
<path d="M54.4001 40.8999V38.2999H58.0801V29.0399L54.3601 31.7999V28.6999L57.7801 26.2999H61.0801V38.2999H64.0001V40.8999H54.4001Z" fill="#101A15"/>
<path d="M70.8122 41.0999C69.8256 41.0999 68.9722 40.9199 68.2522 40.5599C67.5322 40.1866 66.9722 39.6732 66.5722 39.0199C66.1856 38.3532 65.9922 37.5799 65.9922 36.6999V30.4999C65.9922 29.6199 66.1856 28.8532 66.5722 28.1999C66.9722 27.5332 67.5322 27.0199 68.2522 26.6599C68.9722 26.2866 69.8189 26.0999 70.7922 26.0999C71.7789 26.0999 72.6256 26.2866 73.3322 26.6599C74.0522 27.0199 74.6056 27.5332 74.9922 28.1999C75.3922 28.8532 75.5922 29.6199 75.5922 30.4999V36.6999C75.5922 37.5799 75.3922 38.3532 74.9922 39.0199C74.6056 39.6732 74.0522 40.1866 73.3322 40.5599C72.6256 40.9199 71.7856 41.0999 70.8122 41.0999ZM70.7922 38.4999C71.4189 38.4999 71.9056 38.3399 72.2522 38.0199C72.6122 37.6999 72.7922 37.2599 72.7922 36.6999V30.4999C72.7922 29.9399 72.6122 29.4999 72.2522 29.1799C71.9056 28.8599 71.4189 28.6999 70.7922 28.6999C70.1656 28.6999 69.6722 28.8599 69.3122 29.1799C68.9656 29.4999 68.7922 29.9399 68.7922 30.4999V36.6999C68.7922 37.2599 68.9722 37.6999 69.3322 38.0199C69.6922 38.3399 70.1789 38.4999 70.7922 38.4999ZM70.7922 34.9799C70.3789 34.9799 70.0389 34.8466 69.7722 34.5799C69.5189 34.3132 69.3922 33.9666 69.3922 33.5399C69.3922 33.1132 69.5189 32.7732 69.7722 32.5199C70.0389 32.2666 70.3789 32.1399 70.7922 32.1399C71.2189 32.1399 71.5589 32.2666 71.8122 32.5199C72.0656 32.7732 72.1922 33.1132 72.1922 33.5399C72.1922 33.9666 72.0656 34.3132 71.8122 34.5799C71.5589 34.8466 71.2189 34.9799 70.7922 34.9799Z" fill="#101A15"/>
<path d="M78.3844 40.8999V38.2999H82.0644V29.0399L78.3444 31.7999V28.6999L81.7644 26.2999H85.0644V38.2999H87.9844V40.8999H78.3844Z" fill="#101A15"/>
</svg>
